# xmcd
#
# Track frame offsets:
#	150
#	20651
#	30684
#	47853
#	65624
#	85598
#	93316
#	105203
#	130142
#	145061
#	157068
#
# Disc length: 2381 seconds
# Revision: 0
# Processed by: cddbd v1.5.2PL0 Copyright (c) Steve Scherf et al.
# Submitted via: dBpowerAMP V12.0
#
DISCID=8a094b0b
DTITLE=Darkest Hour - Deliver Us
DYEAR=2007
DGENRE=Metalcore
TTITLE0=Doomsayer (The Beginning of the End)
TTITLE1=Sanctuary
TTITLE2=Demon(s)
TTITLE3=An Ethereal Drain
TTITLE4=A Paradox with Flies
TTITLE5=The Light at the Edge of the World
TTITLE6=Stand and Receive Your Judgement
TTITLE7=Tunguska
TTITLE8=Fire in the Skies
TTITLE9=Full Imperial Collapse
TTITLE10=Deliver Us
EXTD=
EXTT0=
EXTT1=
EXTT2=
EXTT3=
EXTT4=
EXTT5=
EXTT6=
EXTT7=
EXTT8=
EXTT9=
EXTT10=
PLAYORDER=
